<?xml version="1.0" standalone="no"?><!DOCTYPE svg PUBLIC "-//W3C//DTD SVG 1.1//EN" "http://www.w3.org/Graphics/SVG/1.1/DTD/svg11.dtd"><svg t="1692713526683" class="icon" viewBox="0 0 1024 1024" version="1.1" xmlns="http://www.w3.org/2000/svg" p-id="17255" xmlns:xlink="http://www.w3.org/1999/xlink" width="64" height="64"><path d="M512 12.8c64 0 128 25.6 172.8 70.4 38.4 44.8 70.4 102.4 70.4 172.8v217.6c0 64-25.6 128-70.4 172.8-44.8 44.8-108.8 70.4-172.8 70.4-64 0-128-25.6-172.8-70.4-44.8-44.8-70.4-108.8-70.4-172.8V256c0-64 25.6-128 70.4-172.8C384 38.4 448 12.8 512 12.8zM345.6 339.2h326.4V256c0-44.8-19.2-83.2-51.2-115.2-25.6-32-64-51.2-108.8-51.2s-89.6 19.2-115.2 51.2c-32 25.6-51.2 70.4-51.2 115.2v83.2z m332.8 51.2H345.6v89.6c0 44.8 19.2 83.2 44.8 115.2 38.4 25.6 76.8 44.8 121.6 44.8s83.2-19.2 115.2-51.2 51.2-70.4 51.2-115.2V390.4z m-390.4 620.8h448c19.2 0 38.4-19.2 38.4-38.4s-19.2-38.4-38.4-38.4h-192v-89.6c89.6-6.4 166.4-44.8 224-108.8 32-32 64-76.8 76.8-121.6 19.2-44.8 25.6-89.6 25.6-140.8V364.8c0-19.2-19.2-38.4-38.4-38.4s-38.4 19.2-38.4 38.4v108.8c0 38.4-6.4 76.8-19.2 108.8-12.8 38.4-38.4 70.4-64 96-44.8 57.6-115.2 89.6-198.4 89.6-38.4 0-76.8-6.4-108.8-19.2-38.4-12.8-70.4-38.4-96-64-25.6-25.6-51.2-57.6-64-96-12.8-38.4-25.6-76.8-25.6-115.2V364.8c0-19.2-19.2-38.4-38.4-38.4s-38.4 19.2-38.4 38.4v108.8c0 51.2 12.8 96 25.6 140.8 25.6 44.8 51.2 89.6 83.2 121.6s76.8 64 121.6 83.2c32 12.8 64 25.6 102.4 25.6v89.6h-192c-19.2 0-38.4 19.2-38.4 38.4 6.4 19.2 19.2 38.4 44.8 38.4z" fill="#ffffff" p-id="17256"></path></svg>