<?xml version="1.0" standalone="no"?><!DOCTYPE svg PUBLIC "-//W3C//DTD SVG 1.1//EN" "http://www.w3.org/Graphics/SVG/1.1/DTD/svg11.dtd"><svg t="1692841469399" class="icon" viewBox="0 0 1024 1024" version="1.1" xmlns="http://www.w3.org/2000/svg" p-id="8574" xmlns:xlink="http://www.w3.org/1999/xlink" width="64" height="64"><path d="M911.36 221.184h-168.96l-20.48-53.76c-9.216-23.552-31.744-39.424-57.344-39.424H356.864c-26.624 0-50.176 16.896-58.368 41.984l-16.896 51.2H112.64c-33.792 0-61.44 27.648-61.44 61.44V834.56c0 33.792 27.648 61.44 61.44 61.44h798.72c33.792 0 61.44-27.648 61.44-61.44V282.624c0-34.304-27.648-61.44-61.44-61.44zM890.88 814.08H133.12V303.104h207.872l30.72-93.184H650.24l35.84 93.184h204.8V814.08z" fill="#ffffff" p-id="8575"></path><path d="M512 337.92c-113.152 0-204.8 91.648-204.8 204.8s91.648 204.8 204.8 204.8 204.8-91.648 204.8-204.8-91.648-204.8-204.8-204.8z m0 327.68c-68.096 0-122.88-54.784-122.88-122.88s54.784-122.88 122.88-122.88 122.88 54.784 122.88 122.88-54.784 122.88-122.88 122.88z" fill="#ffffff" p-id="8576"></path><path d="M768 358.4c0-11.264 9.216-20.48 20.48-20.48h40.96c11.264 0 20.48 9.216 20.48 20.48v40.96c0 11.264-9.216 20.48-20.48 20.48h-40.96c-11.264 0-20.48-9.216-20.48-20.48v-40.96z" fill="#ffffff" p-id="8577"></path></svg>