<?xml version="1.0" standalone="no"?><!DOCTYPE svg PUBLIC "-//W3C//DTD SVG 1.1//EN" "http://www.w3.org/Graphics/SVG/1.1/DTD/svg11.dtd"><svg t="1694605353678" class="icon" viewBox="0 0 1024 1024" version="1.1" xmlns="http://www.w3.org/2000/svg" p-id="5664" xmlns:xlink="http://www.w3.org/1999/xlink" width="64" height="64"><path d="M285.866667 270.933333c-25.6 0-44.8 21.333333-44.8 44.8s21.333333 44.8 44.8 44.8c25.6 0 44.8-21.333333 44.8-44.8s-21.333333-44.8-44.8-44.8z" fill="#ffffff" p-id="5665"></path><path d="M962.133333 266.666667c0-4.266667 0-8.533333-2.133333-12.8-10.666667-34.133333-38.4-59.733333-74.666667-68.266667-25.6-6.4-53.333333 0-74.666666 12.8l-42.666667 27.733333C761.6 160 704 106.666667 635.733333 106.666667h-426.666666c-74.666667 0-134.4 59.733333-134.4 134.4v362.666666c0 74.666667 59.733333 134.4 134.4 134.4h424.533333c70.4 0 130.133333-55.466667 132.266667-128l55.466666 38.4 12.8 6.4c8.533333 2.133333 19.2 4.266667 27.733334 4.266667 25.6 0 51.2-10.666667 70.4-29.866667 19.2-19.2 29.866667-44.8 29.866666-72.533333V266.666667zM633.6 652.8H209.066667c-25.6 0-49.066667-21.333333-49.066667-49.066667v-362.666666c0-25.6 21.333333-49.066667 49.066667-49.066667h424.533333c25.6 0 49.066667 21.333333 49.066667 49.066667v362.666666c0 27.733333-23.466667 49.066667-49.066667 49.066667zM874.666667 571.733333c-2.133333 2.133333-6.4 4.266667-10.666667 4.266667l-93.866667-64c-2.133333 0-2.133333-2.133333-4.266666-2.133333v-177.066667l4.266666-4.266667 83.2-53.333333c2.133333-2.133333 6.4-2.133333 8.533334-2.133333h4.266666c2.133333 0 6.4 2.133333 8.533334 6.4l2.133333 283.733333c2.133333 2.133333 0 6.4-2.133333 8.533333zM635.733333 776.533333H260.266667c-59.733333 0-110.933333 49.066667-110.933334 110.933334 0 23.466667 19.2 42.666667 42.666667 42.666666s42.666667-19.2 42.666667-42.666666c0-12.8 10.666667-25.6 25.6-25.6h375.466666c23.466667 0 42.666667-19.2 42.666667-42.666667s-19.2-42.666667-42.666667-42.666667z" fill="#ffffff" p-id="5666"></path></svg>