<?xml version="1.0" standalone="no"?><!DOCTYPE svg PUBLIC "-//W3C//DTD SVG 1.1//EN" "http://www.w3.org/Graphics/SVG/1.1/DTD/svg11.dtd"><svg t="1694605631128" class="icon" viewBox="0 0 1024 1024" version="1.1" xmlns="http://www.w3.org/2000/svg" p-id="1497" xmlns:xlink="http://www.w3.org/1999/xlink" width="64" height="64"><path d="M682.666667 627.2a42.666667 42.666667 0 0 1 85.333333 0V853.333333a85.333333 85.333333 0 0 1-85.333333 85.333334H341.333333a85.333333 85.333333 0 0 1-85.333333-85.333334v-226.133333a42.666667 42.666667 0 0 1 85.333333 0V853.333333h341.333334v-226.133333zM341.333333 396.8a42.666667 42.666667 0 1 1-85.333333 0V170.666667a85.333333 85.333333 0 0 1 85.333333-85.333334h341.333334a85.333333 85.333333 0 0 1 85.333333 85.333334v226.133333a42.666667 42.666667 0 0 1-85.333333 0V170.666667H341.333333v226.133333z m170.666667-12.8a42.666667 42.666667 0 0 1 42.666667 42.666667v170.666666a42.666667 42.666667 0 0 1-85.333334 0v-170.666666a42.666667 42.666667 0 0 1 42.666667-42.666667z" fill="#ffffff" p-id="1498"></path></svg>