<?xml version="1.0" standalone="no"?><!DOCTYPE svg PUBLIC "-//W3C//DTD SVG 1.1//EN" "http://www.w3.org/Graphics/SVG/1.1/DTD/svg11.dtd"><svg t="1692798343406" class="icon" viewBox="0 0 1024 1024" version="1.1" xmlns="http://www.w3.org/2000/svg" p-id="5132" xmlns:xlink="http://www.w3.org/1999/xlink" width="64" height="64"><path d="M512 42.666667a469.333333 469.333333 0 1 0 469.333333 469.333333A469.333333 469.333333 0 0 0 512 42.666667z m0 864a394.666667 394.666667 0 1 1 394.666667-394.666667 395.146667 395.146667 0 0 1-394.666667 394.666667z" p-id="5133" fill="#ffffff"></path><path d="M401.813333 744.96a42.24 42.24 0 0 1-42.186666-42.186667V321.226667a42.24 42.24 0 0 1 63.306666-36.533334l330.666667 190.773334a42.186667 42.186667 0 0 1 0 73.066666l-330.666667 190.773334a41.973333 41.973333 0 0 1-21.12 5.653333z m32.48-358.293333v250.666666a5.333333 5.333333 0 0 0 8 4.64l217.066667-125.386666a5.333333 5.333333 0 0 0 0-9.173334l-217.066667-125.386666a5.333333 5.333333 0 0 0-8 4.64z m281.706667 153.386666z" p-id="5134" fill="#ffffff"></path></svg>