<?xml version="1.0" standalone="no"?><!DOCTYPE svg PUBLIC "-//W3C//DTD SVG 1.1//EN" "http://www.w3.org/Graphics/SVG/1.1/DTD/svg11.dtd"><svg t="1692709447543" class="icon" viewBox="0 0 1024 1024" version="1.1" xmlns="http://www.w3.org/2000/svg" p-id="5521" width="64" height="64" xmlns:xlink="http://www.w3.org/1999/xlink"><path d="M962.094545 133.678545l-181.620363 181.294546-74.007273-73.867636 181.154909-180.736a239.150545 239.150545 0 0 0-295.237818 33.698909 238.126545 238.126545 0 0 0-61.719273 230.4l-206.196363 206.056727a238.638545 238.638545 0 0 0-264.564364 356.631273l181.015273-180.736 73.960727 73.821091-181.620364 181.34109a239.197091 239.197091 0 0 0 298.356364-31.650909 238.126545 238.126545 0 0 0 61.719273-230.4l206.196363-205.870545a238.778182 238.778182 0 0 0 262.562909-359.982546zM384.139636 882.362182a171.147636 171.147636 0 0 1-124.136727 50.082909l103.610182-103.517091a66.978909 66.978909 0 0 0 0-94.952727l-73.960727-73.821091a67.072 67.072 0 0 0-94.999273 0l-103.656727 103.517091a170.589091 170.589091 0 0 1 50.222545-124.043637 171.659636 171.659636 0 0 1 242.688 0.139637 171.333818 171.333818 0 0 1 0.232727 242.594909z m80.290909-248.925091a238.312727 238.312727 0 0 0-73.960727-73.867636l169.099637-168.86691A238.312727 238.312727 0 0 0 633.483636 464.523636L464.430545 633.483636z m418.350546-249.064727a171.659636 171.659636 0 0 1-242.688-0.139637 171.194182 171.194182 0 0 1-0.093091-242.501818 171.008 171.008 0 0 1 124.090182-50.036364L660.48 195.211636a66.978909 66.978909 0 0 0 0 94.906182l73.960727 73.867637a67.072 67.072 0 0 0 94.999273 0l103.656727-103.563637a171.52 171.52 0 0 1-50.269091 123.950546z" fill="#ffffff" p-id="5522"></path></svg>