<?xml version="1.0" standalone="no"?><!DOCTYPE svg PUBLIC "-//W3C//DTD SVG 1.1//EN" "http://www.w3.org/Graphics/SVG/1.1/DTD/svg11.dtd"><svg t="1692841630099" class="icon" viewBox="0 0 1024 1024" version="1.1" xmlns="http://www.w3.org/2000/svg" p-id="10673" xmlns:xlink="http://www.w3.org/1999/xlink" width="64" height="64"><path d="M895.9 448H832V320c0-35.3-28.7-64-64-64H448l-45.3-45.3c-12-12-28.3-18.7-45.3-18.7H192c-35.3 0-64 28.7-64 64v576c0 35.3 28.7 64 64 64h610.9c26.9 0 51-16.8 60.1-42.1l93.1-320c15.2-41.8-15.7-85.9-60.2-85.9zM192 763.2V320h576l0.1 128H328.2c-26.9 0-51 16.8-60.1 42.1L192 763.2zM802.9 832H235.1l93.1-320h567.7l-93 320z" fill="#ffffff" p-id="10674"></path></svg>