<?xml version="1.0" standalone="no"?><!DOCTYPE svg PUBLIC "-//W3C//DTD SVG 1.1//EN" "http://www.w3.org/Graphics/SVG/1.1/DTD/svg11.dtd"><svg t="1694605729412" class="icon" viewBox="0 0 1024 1024" version="1.1" xmlns="http://www.w3.org/2000/svg" p-id="1009" xmlns:xlink="http://www.w3.org/1999/xlink" width="64" height="64"><path d="M768 695.978667l-85.333333-74.154667V170.666667H341.333333v154.453333L256 250.88V170.666667a85.333333 85.333333 0 0 1 85.333333-85.333334h341.333334a85.333333 85.333333 0 0 1 85.333333 85.333334v525.312z m-0.768 168.96A85.333333 85.333333 0 0 1 682.666667 938.666667H341.333333a85.333333 85.333333 0 0 1-85.333333-85.333334V420.522667l85.333333 74.154666V853.333333h341.333334v-61.909333l84.565333 73.472z" fill="#ffffff" p-id="1010"></path><path d="M98.638271 170.646316m32.200942 27.991852l772.822611 671.804446q32.200942 27.991852 4.20909 60.192794l0 0q-27.991852 32.200942-60.192794 4.20909l-772.82261-671.804445q-32.200942-27.991852-4.20909-60.192794l0 0q27.991852-32.200942 60.192793-4.209091Z" fill="#ffffff" p-id="1011"></path></svg>