<?xml version="1.0" standalone="no"?><!DOCTYPE svg PUBLIC "-//W3C//DTD SVG 1.1//EN" "http://www.w3.org/Graphics/SVG/1.1/DTD/svg11.dtd"><svg t="1694244596757" class="icon" viewBox="0 0 1024 1024" version="1.1" xmlns="http://www.w3.org/2000/svg" p-id="9341" xmlns:xlink="http://www.w3.org/1999/xlink" width="64" height="64"><path d="M818 731.5c-116-92.7-148.2-46.8-200.5 6h-0.1C581 774.4 488 697.9 407.6 618c-80.4-80-157.3-172.6-120.7-209.5 52.3-52.7 97.8-85.4 4.5-200.9C198 92 136.3 181.2 85.7 232.4c-58.5 59.1-2.1 278 214.8 493.9C517.4 942 736.3 996.9 794.7 937.9 845.4 886.7 934 824.3 818 731.5zM801.2 280.4l97.7-89c0.1-0.1 0.3-0.2 0.4-0.4 16.1-15 17-40.2 2-56.3-15.2-16.3-40.7-17.3-57.2-2.4l-97.7 89-89.8-96.6c-15.2-16.3-40.7-17.4-57.3-2.4-0.1 0.1-0.2 0.2-0.4 0.3-16.1 15-17 40.2-2.1 56.3l89.8 96.7-97.7 88.9c-0.1 0.1-0.3 0.2-0.4 0.4-16.1 15-17 40.2-2 56.3 8 8.5 18.9 13 29.8 13 10.1 0 19.9-3.7 27.4-10.6l97.7-89 89.8 96.6c8 8.6 18.9 13 29.9 13 10.1 0.1 19.9-3.7 27.4-10.5 0.1-0.1 0.3-0.2 0.4-0.4 16.1-15 17-40.2 2-56.3l-89.7-96.6z" p-id="9342" fill="#ffffff"></path></svg>