<?xml version="1.0" standalone="no"?><!DOCTYPE svg PUBLIC "-//W3C//DTD SVG 1.1//EN" "http://www.w3.org/Graphics/SVG/1.1/DTD/svg11.dtd"><svg t="1692712274061" class="icon" viewBox="0 0 1024 1024" version="1.1" xmlns="http://www.w3.org/2000/svg" p-id="13766" xmlns:xlink="http://www.w3.org/1999/xlink" width="64" height="64"><path d="M767.573333 329.472l112.768-28.202667c5.632-1.152 5.632-1.152 11.392-1.408a46.933333 46.933333 0 0 1 46.933334 46.933334v330.410666c-0.256 5.76-0.256 5.76-1.408 11.392a46.933333 46.933333 0 0 1-56.917334 34.133334l-112.768-28.16A170.666667 170.666667 0 0 1 597.333333 853.333333H256a170.666667 170.666667 0 0 1-170.666667-170.666666V341.333333a170.666667 170.666667 0 0 1 170.666667-170.666666h341.333333a170.666667 170.666667 0 0 1 170.24 158.805333z m0.426667 277.205333l85.333333 21.333334V395.989333l-85.333333 21.333334v189.354666zM682.666667 341.333333a85.333333 85.333333 0 0 0-85.333334-85.333333H256a85.333333 85.333333 0 0 0-85.333333 85.333333v341.333334a85.333333 85.333333 0 0 0 85.333333 85.333333h341.333333a85.333333 85.333333 0 0 0 85.333334-85.333333v-41.728-256.042667V341.333333z m-384 341.333334a42.666667 42.666667 0 0 1 0-85.333334h85.333333a42.666667 42.666667 0 0 1 0 85.333334H298.666667z" fill="#ffffff" p-id="13767"></path></svg>